#!OML:ASF X:\für Bonn\!DataBase\2005_08_12_Daniel\c3d\Daniel.ASF
:FULLY-SPECIFIED
:DEGREES
112
root 7.94356 16.3196 9.01743 891.596 -47.3023 -183.126
lowerback 38.8229 2.98174 -5.80707
upperback 9.43463 -1.54707 -5.21026
thorax -8.50534 -1.60127 -1.78407
lowerneck 0.0363922 0.849762 -3.582
upperneck 2.55695 1.06297 3.42588
head 0.747312 0.518829 1.67838
rclavicle 1.66979e-014 6.04305e-014
rhumerus -37.3265 -2.51519 -87.8376
rradius 66.7819
rwrist 10.4243
rhand -32.4786 7.98875
rfingers 7.12502
rthumb -5.71081 -21.9143
lclavicle 1.66979e-014 6.04305e-014
lhumerus -26.5585 19.5381 78.2075
lradius 70.2936
lwrist -25.5188
lhand -27.6418 4.22027
lfingers 7.12502
lthumb -1.03995 34.1975
rfemur -22.5147 -1.28713 17.6906
rtibia 70.3365
rfoot -18.6548 7.64061
rtoes -13.6684
lfemur -15.9024 -1.14928 -25.9679
ltibia 58.8207
lfoot -30.7585 -5.50265
ltoes -3.31404
113
root 7.86106 16.3211 8.94736 891.335 -47.1167 -183.013
lowerback 38.7722 2.87255 -5.68533
upperback 9.46182 -1.62269 -5.15307
thorax -8.46111 -1.64011 -1.75507
lowerneck -0.0540717 0.904208 -3.56989
upperneck 2.69107 1.13763 3.31882
head 0.802139 0.555509 1.64395
rclavicle -5.80451e-014 1.43125e-014
rhumerus -37.4208 -2.36005 -87.8942
rradius 66.8575
rwrist 10.2835
rhand -32.5521 7.90281
rfingers 7.12502
rthumb -5.78181 -21.9983
lclavicle -5.80451e-014 1.43125e-014
lhumerus -26.5294 19.5619 78.2746
lradius 70.2597
lwrist -25.5837
lhand -27.6602 4.08216
lfingers 7.12502
lthumb -1.05772 34.0593
rfemur -23.3752 -1.05688 17.85
rtibia 69.5848
rfoot -18.7646 7.67481
rtoes -13.6609
lfemur -15.1521 -1.22426 -25.9693
ltibia 58.6769
lfoot -31.1553 -5.20645
ltoes -3.39269
114
root 7.77884 16.3234 8.87605 891.083 -46.9036 -182.925
lowerback 38.739 2.788 -5.59238
upperback 9.47864 -1.68392 -5.10585
thorax -8.43345 -1.67196 -1.72771
lowerneck -0.125697 0.954738 -3.44967
upperneck 2.7895 1.20801 3.14887
head 0.843356 0.590415 1.56998
rclavicle -4.45278e-014 -4.13472e-014
rhumerus -37.5388 -2.22036 -87.979
rradius 66.9663
rwrist 10.2011
rhand -32.5755 7.73195
rfingers 7.12502
rthumb -5.80436 -22.1686
lclavicle -4.45278e-014 -4.13472e-014
lhumerus -26.5171 19.5215 78.3203
lradius 70.258
lwrist -25.5656
lhand -27.6529 4.04985
lfingers 7.12502
lthumb -1.05065 34.027
rfemur -24.1749 -0.806324 17.9972
rtibia 68.7466
rfoot -18.8213 7.6734
rtoes -13.6643
lfemur -14.3775 -1.24379 -25.9802
ltibia 58.505
lfoot -31.5456 -4.90218
ltoes -3.45227
115
root 7.69596 16.3271 8.80473 890.845 -46.7074 -182.831
lowerback 38.6884 2.68702 -5.48498
upperback 9.49303 -1.75341 -5.04379
thorax -8.40265 -1.70665 -1.68887
lowerneck -0.192219 1.01412 -3.38814
upperneck 2.89424 1.28952 3.01744
head 0.88518 0.630413 1.51907
rclavicle -3.4191e-014 -2.70347e-014
rhumerus -37.6792 -2.05356 -88.0216
rradius 67.0933
rwrist 10.1478
rhand -32.5403 7.53438
rfingers 7.12502
rthumb -5.77043 -22.3671
lclavicle -3.4191e-014 -2.70347e-014
lhumerus -26.4728 19.5492 78.4006
lradius 70.2105
lwrist -25.5779
lhand -27.6773 3.94035
lfingers 7.12502
lthumb -1.07424 33.9174
rfemur -24.9348 -0.56874 18.1449
rtibia 67.8071
rfoot -18.8073 7.65576
rtoes -13.5711
lfemur -13.6112 -1.26783 -25.9851
ltibia 58.3113
lfoot -31.9183 -4.64047
ltoes -3.45003
